# xmcd
#
# Track frame offsets:
# 150
# 12946
# 26408
# 39965
# 53548
# 66596
# 76960
# 88275
# 99537
# 113451
# 126111
# 138853
# 151655
# 164527
# 177467
# 187647
# 200770
# 214385
# 227578
# 240425
#
# Disc length: 3376 seconds
#
#
# Revision: 0
# Processed by: cddbd v1.5.2PL0 Copyright (c) Steve Scherf et al.
# Submitted via: FreeRIP 2.96 
#
DISCID=fe0d2e14
DTITLE=Josephine Baker - Sur Deux Notes CD1
DYEAR=2003
DGENRE=Jazz
TTITLE0=Then I'll Be Happy
TTITLE1=Hello Bluebird
TTITLE2=Dinah
TTITLE3=Sleepy Time Gal
TTITLE4=I Wonder Where My Baby Is Tonight
TTITLE5=I Love My Baby
TTITLE6=I Found A New Baby
TTITLE7=Always
TTITLE8=Pretty Little Baby
TTITLE9=Where Do You Get Those Eyes
TTITLE10=After I Say I'm Sorry
TTITLE11=Who
TTITLE12=He's The Last Word
TTITLE13=Lonesome Lovesick Blues
TTITLE14=I Love Dancing
TTITLE15=Breezing Along With The Breeze
TTITLE16=That Certain Feeling
TTITLE17=Blue Skies
TTITLE18=I'm Leaving For Albamy
TTITLE19=Bye Bye Blackbird
EXTD=
EXTT0=
EXTT1=
EXTT2=
EXTT3=
EXTT4=
EXTT5=
EXTT6=
EXTT7=
EXTT8=
EXTT9=
EXTT10=
EXTT11=
EXTT12=
EXTT13=
EXTT14=
EXTT15=
EXTT16=
EXTT17=
EXTT18=
EXTT19=
PLAYORDER=
